<svg xmlns="http://www.w3.org/2000/svg" width="666.667" height="666.667" viewBox="0 0 500 500"><path d="M0 250v250h500V0H0zm129.4-146.5c5.1 11.5 9.7 21.9 10.2 23 .6 1.3 1-6.3 1.2-21.3L141 82h42.5l19.4 44.3c24.8 56.5 47.2 107.1 47.5 107.5.2.1 3.3-6.4 6.9-14.5 3.6-8.2 9.7-21.8 13.6-30.3 3.8-8.5 16.2-36 27.4-61l20.5-45.5 20.1-.3L359 82l.2 25.7.3 25.8 6.4-14.5c3.5-8 8.3-18.6 10.6-23.6 2.4-5 4.6-10.1 5-11.3.6-2.1.9-2.1 20.8-1.9l20.2.3.3 138.2.2 138.3h-32V253.1c0-67.5.4-110.6 1.1-118.6 1-12 .7-17.1-.6-10.9-2 9.4-7.8 24.3-19.4 50.4L359 203.4V359h-32l-.2-41.4-.3-41.3-18.4 41.4-18.3 41.4-8.1-.3-8.1-.3-11.5-25.8c-6.3-14.1-11.7-25.7-12-25.7-.6 0-2.6 4.3-12.6 27-2.6 5.8-6.2 13.8-8 17.7l-3.4 7.3h-15.7l-18.3-41.2c-10.1-22.7-18.8-41.7-19.2-42.2-.5-.6-.9 17.8-.9 41.2V359h-31V203.2l-4.1-8.9c-18.5-39.9-27.9-64-27.9-71.2 0-1.1-.5-2.3-1.1-2.7-.9-.5-1 .1-.4 2.2.4 1.6 1 55.4 1.2 119.6l.4 116.8H77V221.2c0-75.8.3-138.2.7-138.6.4-.3 10.1-.5 21.5-.4l20.9.3zm293.6 298V417H77v-31h346z"/><path d="m171.8 160.3.4 40.2 9 20.5c4.9 11.3 13.7 31.2 19.5 44.4 5.8 13.1 12 27.9 13.8 33 1.8 5 3.7 9 4.1 8.9.5-.1 2.5-4.7 4.6-10.3s5.4-13.9 7.3-18.5l3.6-8.3-27.2-60.9c-29.1-65.2-29.8-66.8-33.2-80.3l-2.2-9zM328 123c0 5.4-9 27.7-34.3 84.6l-27.6 62.2 5.3 12.3c2.9 6.8 6.3 15.4 7.6 19.2 1.2 3.7 2.6 6.7 3.1 6.7.4 0 1.3-1.7 2-3.8 2.5-7.9 11.1-28.6 20.4-49.2 5.4-11.8 12.6-27.9 16.1-35.8L327 205v-24.3c0-21.7 1.1-45.8 2.5-56 .3-2.2.1-3.7-.5-3.7-.5 0-1 .9-1 2"/></svg>